<svg height="45" width="45" viewBox="0 0 500 500" xmlns="http://www.w3.org/2000/svg"><path d="m205.1043549 486.6675415c-.6417236 17.8714905-103.0670853-17.9546814-157.5139771-62.4330139 159.7657013 178.9770813 431.8715668 61.2819214 442.4096222-147.2232971-32.4781189 102.3364257-163.1490173 121.4574585-290.754715 36.8230285-154.7066574-112.7942657-116.7902603-284.0379333 40.8388977-300.0535564 104.9976044-7.41185 213.1708527 84.4387207 177.0770721 156.3765259-44.0438538 80.6804962-192.5512695 16.0308228-180.7579193-67.3549118 2.6979828-26.8078537 29.8852692-43.467392 21.9844818-16.4316864-19.2488861 61.3997421 96.1730957 107.696907 122.241333 49.5705338 24.8137817-63.9482269-116.1818848-111.9157867-160.4762115-69.1332474-111.4909973 111.9202022 150.5782013 255.8318233 223.2244416 146.2819881 51.6972046-82.3323212-68.7431031-218.713687-205.3213501-212.9105642-220.6658478 3.2785509-311.1956024 248.7166097-171.0677567 390.2777212 79.8688584 78.0465698 140.0890122 84.3218078 138.1160813 96.2104797z"/></svg>